<mxfile host="Electron" agent="Mozilla/5.0 (Windows NT 10.0; Win64; x64) AppleWebKit/537.36 (KHTML, like Gecko) draw.io/24.7.5 Chrome/126.0.6478.183 Electron/31.3.0 Safari/537.36" version="24.7.5" pages="2">
  <diagram name="第 1 页" id="E7Ui4IqI4emqpT3ekYHS">
    <mxGraphModel dx="1434" dy="844" grid="1" gridSize="10" guides="1" tooltips="1" connect="1" arrows="1" fold="1" page="1" pageScale="1" pageWidth="1169" pageHeight="827" math="0" shadow="0">
      <root>
        <mxCell id="0" />
        <mxCell id="1" parent="0" />
        <mxCell id="0QdMDEYEwpAf59lSKG3D-46" style="edgeStyle=orthogonalEdgeStyle;rounded=0;orthogonalLoop=1;jettySize=auto;html=1;entryX=0;entryY=0.5;entryDx=0;entryDy=0;" edge="1" parent="1" source="0QdMDEYEwpAf59lSKG3D-3" target="0QdMDEYEwpAf59lSKG3D-45">
          <mxGeometry relative="1" as="geometry" />
        </mxCell>
        <mxCell id="0QdMDEYEwpAf59lSKG3D-3" value="用戶 A&amp;nbsp;" style="verticalLabelPosition=bottom;aspect=fixed;html=1;shape=mxgraph.salesforce.web;" vertex="1" parent="1">
          <mxGeometry x="210" y="171.29999999999998" width="47.34" height="37.4" as="geometry" />
        </mxCell>
        <mxCell id="0QdMDEYEwpAf59lSKG3D-33" value="&lt;span style=&quot;font-size: 22px;&quot;&gt;&lt;b&gt;1. &lt;br&gt;當前狀態&lt;/b&gt;&lt;/span&gt;&lt;div&gt;&lt;span style=&quot;font-size: 22px;&quot;&gt;&lt;b&gt;&lt;br&gt;&lt;/b&gt;&lt;/span&gt;&lt;/div&gt;" style="ellipse;whiteSpace=wrap;html=1;aspect=fixed;" vertex="1" parent="1">
          <mxGeometry x="461" y="70" width="90" height="90" as="geometry" />
        </mxCell>
        <mxCell id="0QdMDEYEwpAf59lSKG3D-49" style="edgeStyle=orthogonalEdgeStyle;rounded=0;orthogonalLoop=1;jettySize=auto;html=1;exitX=1;exitY=0.5;exitDx=0;exitDy=0;entryX=0.014;entryY=0.389;entryDx=0;entryDy=0;entryPerimeter=0;" edge="1" parent="1" source="0QdMDEYEwpAf59lSKG3D-45" target="0QdMDEYEwpAf59lSKG3D-47">
          <mxGeometry relative="1" as="geometry">
            <mxPoint x="470" y="190" as="targetPoint" />
          </mxGeometry>
        </mxCell>
        <mxCell id="0QdMDEYEwpAf59lSKG3D-45" value="Producer&lt;div&gt;Port：9092&lt;/div&gt;" style="rounded=0;whiteSpace=wrap;html=1;" vertex="1" parent="1">
          <mxGeometry x="330" y="169.35" width="70" height="41.3" as="geometry" />
        </mxCell>
        <mxCell id="IWrfxPcQz_Gugk0taK8R-7" style="edgeStyle=orthogonalEdgeStyle;rounded=0;orthogonalLoop=1;jettySize=auto;html=1;endArrow=none;endFill=0;dashed=1;" edge="1" parent="1" source="0QdMDEYEwpAf59lSKG3D-47" target="IWrfxPcQz_Gugk0taK8R-3">
          <mxGeometry relative="1" as="geometry">
            <Array as="points">
              <mxPoint x="570" y="356" />
              <mxPoint x="570" y="356" />
            </Array>
          </mxGeometry>
        </mxCell>
        <mxCell id="0QdMDEYEwpAf59lSKG3D-47" value="伺服器: 192.168.51.28" style="image;aspect=fixed;perimeter=ellipsePerimeter;html=1;align=center;shadow=0;dashed=0;spacingTop=3;image=img/lib/active_directory/web_server.svg;" vertex="1" parent="1">
          <mxGeometry x="470" y="300" width="72" height="90" as="geometry" />
        </mxCell>
        <mxCell id="0QdMDEYEwpAf59lSKG3D-50" style="edgeStyle=orthogonalEdgeStyle;rounded=0;orthogonalLoop=1;jettySize=auto;html=1;entryX=0;entryY=0.5;entryDx=0;entryDy=0;" edge="1" parent="1" source="0QdMDEYEwpAf59lSKG3D-51" target="0QdMDEYEwpAf59lSKG3D-53">
          <mxGeometry relative="1" as="geometry" />
        </mxCell>
        <mxCell id="0QdMDEYEwpAf59lSKG3D-51" value="用戶 B" style="verticalLabelPosition=bottom;aspect=fixed;html=1;shape=mxgraph.salesforce.web;" vertex="1" parent="1">
          <mxGeometry x="210" y="331.95" width="47.34" height="37.4" as="geometry" />
        </mxCell>
        <mxCell id="0QdMDEYEwpAf59lSKG3D-52" style="edgeStyle=orthogonalEdgeStyle;rounded=0;orthogonalLoop=1;jettySize=auto;html=1;exitX=1;exitY=0.5;exitDx=0;exitDy=0;" edge="1" parent="1" source="0QdMDEYEwpAf59lSKG3D-53">
          <mxGeometry relative="1" as="geometry">
            <mxPoint x="470" y="350.65" as="targetPoint" />
          </mxGeometry>
        </mxCell>
        <mxCell id="0QdMDEYEwpAf59lSKG3D-53" value="Producer&lt;div&gt;Port：9094&lt;/div&gt;" style="rounded=0;whiteSpace=wrap;html=1;" vertex="1" parent="1">
          <mxGeometry x="330" y="330" width="70" height="41.3" as="geometry" />
        </mxCell>
        <mxCell id="0QdMDEYEwpAf59lSKG3D-54" style="edgeStyle=orthogonalEdgeStyle;rounded=0;orthogonalLoop=1;jettySize=auto;html=1;entryX=0;entryY=0.5;entryDx=0;entryDy=0;" edge="1" parent="1" source="0QdMDEYEwpAf59lSKG3D-55" target="0QdMDEYEwpAf59lSKG3D-57">
          <mxGeometry relative="1" as="geometry" />
        </mxCell>
        <mxCell id="0QdMDEYEwpAf59lSKG3D-55" value="用戶 C" style="verticalLabelPosition=bottom;aspect=fixed;html=1;shape=mxgraph.salesforce.web;" vertex="1" parent="1">
          <mxGeometry x="210" y="491.94999999999993" width="47.34" height="37.4" as="geometry" />
        </mxCell>
        <mxCell id="0QdMDEYEwpAf59lSKG3D-56" style="edgeStyle=orthogonalEdgeStyle;rounded=0;orthogonalLoop=1;jettySize=auto;html=1;exitX=1;exitY=0.5;exitDx=0;exitDy=0;entryX=0;entryY=0.75;entryDx=0;entryDy=0;" edge="1" parent="1" source="0QdMDEYEwpAf59lSKG3D-57" target="0QdMDEYEwpAf59lSKG3D-47">
          <mxGeometry relative="1" as="geometry">
            <mxPoint x="470" y="510.65" as="targetPoint" />
            <Array as="points">
              <mxPoint x="436" y="511" />
              <mxPoint x="436" y="365" />
            </Array>
          </mxGeometry>
        </mxCell>
        <mxCell id="0QdMDEYEwpAf59lSKG3D-57" value="Producer&lt;div&gt;Port：9096&lt;/div&gt;" style="rounded=0;whiteSpace=wrap;html=1;" vertex="1" parent="1">
          <mxGeometry x="330" y="490" width="70" height="41.3" as="geometry" />
        </mxCell>
        <mxCell id="IWrfxPcQz_Gugk0taK8R-1" value="Kafka-0&lt;div&gt;Port：9092&lt;/div&gt;" style="image;aspect=fixed;html=1;points=[];align=center;fontSize=12;image=img/lib/azure2/other/Container_App_Environments.svg;" vertex="1" parent="1">
          <mxGeometry x="630" y="180" width="68" height="68" as="geometry" />
        </mxCell>
        <mxCell id="IWrfxPcQz_Gugk0taK8R-3" value="Kafka-1&lt;div&gt;Port：9094&lt;/div&gt;" style="image;aspect=fixed;html=1;points=[];align=center;fontSize=12;image=img/lib/azure2/other/Container_App_Environments.svg;" vertex="1" parent="1">
          <mxGeometry x="630" y="321.65" width="68" height="68" as="geometry" />
        </mxCell>
        <mxCell id="IWrfxPcQz_Gugk0taK8R-4" value="Kafka-2&lt;div&gt;Port：9096&lt;/div&gt;" style="image;aspect=fixed;html=1;points=[];align=center;fontSize=12;image=img/lib/azure2/other/Container_App_Environments.svg;" vertex="1" parent="1">
          <mxGeometry x="630" y="473.94999999999993" width="68" height="68" as="geometry" />
        </mxCell>
        <mxCell id="IWrfxPcQz_Gugk0taK8R-5" style="edgeStyle=orthogonalEdgeStyle;rounded=0;orthogonalLoop=1;jettySize=auto;html=1;entryX=0.015;entryY=0.515;entryDx=0;entryDy=0;dashed=1;endArrow=none;endFill=0;exitX=1;exitY=0.25;exitDx=0;exitDy=0;entryPerimeter=0;" edge="1" parent="1" source="0QdMDEYEwpAf59lSKG3D-47" target="IWrfxPcQz_Gugk0taK8R-1">
          <mxGeometry relative="1" as="geometry">
            <mxPoint x="708" y="225" as="sourcePoint" />
            <mxPoint x="830" y="355" as="targetPoint" />
            <Array as="points">
              <mxPoint x="590" y="325" />
              <mxPoint x="590" y="215" />
            </Array>
          </mxGeometry>
        </mxCell>
        <mxCell id="IWrfxPcQz_Gugk0taK8R-6" style="edgeStyle=orthogonalEdgeStyle;rounded=0;orthogonalLoop=1;jettySize=auto;html=1;entryX=-0.044;entryY=0.515;entryDx=0;entryDy=0;dashed=1;endArrow=none;endFill=0;entryPerimeter=0;exitX=0.972;exitY=0.911;exitDx=0;exitDy=0;exitPerimeter=0;" edge="1" parent="1" source="0QdMDEYEwpAf59lSKG3D-47" target="IWrfxPcQz_Gugk0taK8R-4">
          <mxGeometry relative="1" as="geometry">
            <mxPoint x="541" y="354" as="sourcePoint" />
            <mxPoint x="641" y="225" as="targetPoint" />
            <Array as="points">
              <mxPoint x="541" y="382" />
              <mxPoint x="541" y="380" />
              <mxPoint x="590" y="380" />
              <mxPoint x="590" y="509" />
            </Array>
          </mxGeometry>
        </mxCell>
      </root>
    </mxGraphModel>
  </diagram>
  <diagram id="CgtuaBRWoqkBJlM1tmj8" name="第 2 页">
    <mxGraphModel dx="1434" dy="844" grid="1" gridSize="10" guides="1" tooltips="1" connect="1" arrows="1" fold="1" page="1" pageScale="1" pageWidth="1169" pageHeight="827" math="0" shadow="0">
      <root>
        <mxCell id="0" />
        <mxCell id="1" parent="0" />
        <mxCell id="YBr_9CjgEZrfSN83zHOZ-1" style="edgeStyle=orthogonalEdgeStyle;rounded=0;orthogonalLoop=1;jettySize=auto;html=1;entryX=0;entryY=0.5;entryDx=0;entryDy=0;" edge="1" parent="1" source="YBr_9CjgEZrfSN83zHOZ-2" target="YBr_9CjgEZrfSN83zHOZ-5">
          <mxGeometry relative="1" as="geometry" />
        </mxCell>
        <mxCell id="YBr_9CjgEZrfSN83zHOZ-2" value="用戶 A&amp;nbsp;" style="verticalLabelPosition=bottom;aspect=fixed;html=1;shape=mxgraph.salesforce.web;" vertex="1" parent="1">
          <mxGeometry x="210" y="171.29999999999998" width="47.34" height="37.4" as="geometry" />
        </mxCell>
        <mxCell id="YBr_9CjgEZrfSN83zHOZ-3" value="&lt;span style=&quot;font-size: 22px;&quot;&gt;&lt;b&gt;2. &lt;br&gt;關閉容器&lt;br&gt;&lt;/b&gt;&lt;/span&gt;&lt;div&gt;&lt;span style=&quot;font-size: 22px;&quot;&gt;&lt;b&gt;Kafka-0&lt;/b&gt;&lt;/span&gt;&lt;/div&gt;" style="ellipse;whiteSpace=wrap;html=1;aspect=fixed;" vertex="1" parent="1">
          <mxGeometry x="461" y="70" width="90" height="90" as="geometry" />
        </mxCell>
        <mxCell id="YBr_9CjgEZrfSN83zHOZ-4" style="edgeStyle=orthogonalEdgeStyle;rounded=0;orthogonalLoop=1;jettySize=auto;html=1;exitX=1;exitY=0.5;exitDx=0;exitDy=0;entryX=0.014;entryY=0.389;entryDx=0;entryDy=0;entryPerimeter=0;" edge="1" parent="1" source="YBr_9CjgEZrfSN83zHOZ-5" target="YBr_9CjgEZrfSN83zHOZ-7">
          <mxGeometry relative="1" as="geometry">
            <mxPoint x="470" y="190" as="targetPoint" />
          </mxGeometry>
        </mxCell>
        <mxCell id="YBr_9CjgEZrfSN83zHOZ-5" value="Producer&lt;div&gt;Port：9092&lt;/div&gt;" style="rounded=0;whiteSpace=wrap;html=1;" vertex="1" parent="1">
          <mxGeometry x="330" y="169.35" width="70" height="41.3" as="geometry" />
        </mxCell>
        <mxCell id="YBr_9CjgEZrfSN83zHOZ-6" style="edgeStyle=orthogonalEdgeStyle;rounded=0;orthogonalLoop=1;jettySize=auto;html=1;endArrow=none;endFill=0;dashed=1;" edge="1" parent="1" source="YBr_9CjgEZrfSN83zHOZ-7" target="YBr_9CjgEZrfSN83zHOZ-17">
          <mxGeometry relative="1" as="geometry">
            <Array as="points">
              <mxPoint x="570" y="356" />
              <mxPoint x="570" y="356" />
            </Array>
          </mxGeometry>
        </mxCell>
        <mxCell id="YBr_9CjgEZrfSN83zHOZ-7" value="伺服器: 192.168.51.28" style="image;aspect=fixed;perimeter=ellipsePerimeter;html=1;align=center;shadow=0;dashed=0;spacingTop=3;image=img/lib/active_directory/web_server.svg;" vertex="1" parent="1">
          <mxGeometry x="470" y="300" width="72" height="90" as="geometry" />
        </mxCell>
        <mxCell id="YBr_9CjgEZrfSN83zHOZ-8" style="edgeStyle=orthogonalEdgeStyle;rounded=0;orthogonalLoop=1;jettySize=auto;html=1;entryX=0;entryY=0.5;entryDx=0;entryDy=0;" edge="1" parent="1" source="YBr_9CjgEZrfSN83zHOZ-9" target="YBr_9CjgEZrfSN83zHOZ-11">
          <mxGeometry relative="1" as="geometry" />
        </mxCell>
        <mxCell id="YBr_9CjgEZrfSN83zHOZ-9" value="用戶 B" style="verticalLabelPosition=bottom;aspect=fixed;html=1;shape=mxgraph.salesforce.web;" vertex="1" parent="1">
          <mxGeometry x="210" y="331.95" width="47.34" height="37.4" as="geometry" />
        </mxCell>
        <mxCell id="YBr_9CjgEZrfSN83zHOZ-10" style="edgeStyle=orthogonalEdgeStyle;rounded=0;orthogonalLoop=1;jettySize=auto;html=1;exitX=1;exitY=0.5;exitDx=0;exitDy=0;" edge="1" parent="1" source="YBr_9CjgEZrfSN83zHOZ-11">
          <mxGeometry relative="1" as="geometry">
            <mxPoint x="470" y="350.65" as="targetPoint" />
          </mxGeometry>
        </mxCell>
        <mxCell id="YBr_9CjgEZrfSN83zHOZ-11" value="Producer&lt;div&gt;Port：9094&lt;/div&gt;" style="rounded=0;whiteSpace=wrap;html=1;" vertex="1" parent="1">
          <mxGeometry x="330" y="330" width="70" height="41.3" as="geometry" />
        </mxCell>
        <mxCell id="YBr_9CjgEZrfSN83zHOZ-12" style="edgeStyle=orthogonalEdgeStyle;rounded=0;orthogonalLoop=1;jettySize=auto;html=1;entryX=0;entryY=0.5;entryDx=0;entryDy=0;" edge="1" parent="1" source="YBr_9CjgEZrfSN83zHOZ-13" target="YBr_9CjgEZrfSN83zHOZ-15">
          <mxGeometry relative="1" as="geometry" />
        </mxCell>
        <mxCell id="YBr_9CjgEZrfSN83zHOZ-13" value="用戶 C" style="verticalLabelPosition=bottom;aspect=fixed;html=1;shape=mxgraph.salesforce.web;" vertex="1" parent="1">
          <mxGeometry x="210" y="491.94999999999993" width="47.34" height="37.4" as="geometry" />
        </mxCell>
        <mxCell id="YBr_9CjgEZrfSN83zHOZ-14" style="edgeStyle=orthogonalEdgeStyle;rounded=0;orthogonalLoop=1;jettySize=auto;html=1;exitX=1;exitY=0.5;exitDx=0;exitDy=0;entryX=0;entryY=0.75;entryDx=0;entryDy=0;" edge="1" parent="1" source="YBr_9CjgEZrfSN83zHOZ-15" target="YBr_9CjgEZrfSN83zHOZ-7">
          <mxGeometry relative="1" as="geometry">
            <mxPoint x="470" y="510.65" as="targetPoint" />
            <Array as="points">
              <mxPoint x="436" y="511" />
              <mxPoint x="436" y="365" />
            </Array>
          </mxGeometry>
        </mxCell>
        <mxCell id="YBr_9CjgEZrfSN83zHOZ-15" value="Producer&lt;div&gt;Port：9096&lt;/div&gt;" style="rounded=0;whiteSpace=wrap;html=1;" vertex="1" parent="1">
          <mxGeometry x="330" y="490" width="70" height="41.3" as="geometry" />
        </mxCell>
        <mxCell id="YBr_9CjgEZrfSN83zHOZ-16" value="Kafka-0&lt;div&gt;Port：9092&lt;/div&gt;" style="image;aspect=fixed;html=1;points=[];align=center;fontSize=12;image=img/lib/azure2/other/Container_App_Environments.svg;" vertex="1" parent="1">
          <mxGeometry x="630" y="180" width="68" height="68" as="geometry" />
        </mxCell>
        <mxCell id="YBr_9CjgEZrfSN83zHOZ-17" value="Kafka-1&lt;div&gt;Port：9094&lt;/div&gt;" style="image;aspect=fixed;html=1;points=[];align=center;fontSize=12;image=img/lib/azure2/other/Container_App_Environments.svg;" vertex="1" parent="1">
          <mxGeometry x="630" y="321.65" width="68" height="68" as="geometry" />
        </mxCell>
        <mxCell id="YBr_9CjgEZrfSN83zHOZ-18" value="Kafka-2&lt;div&gt;Port：9096&lt;/div&gt;" style="image;aspect=fixed;html=1;points=[];align=center;fontSize=12;image=img/lib/azure2/other/Container_App_Environments.svg;" vertex="1" parent="1">
          <mxGeometry x="630" y="473.94999999999993" width="68" height="68" as="geometry" />
        </mxCell>
        <mxCell id="YBr_9CjgEZrfSN83zHOZ-19" style="edgeStyle=orthogonalEdgeStyle;rounded=0;orthogonalLoop=1;jettySize=auto;html=1;entryX=0.015;entryY=0.515;entryDx=0;entryDy=0;dashed=1;endArrow=none;endFill=0;exitX=1;exitY=0.25;exitDx=0;exitDy=0;entryPerimeter=0;" edge="1" parent="1" source="YBr_9CjgEZrfSN83zHOZ-7" target="YBr_9CjgEZrfSN83zHOZ-16">
          <mxGeometry relative="1" as="geometry">
            <mxPoint x="708" y="225" as="sourcePoint" />
            <mxPoint x="830" y="355" as="targetPoint" />
            <Array as="points">
              <mxPoint x="590" y="325" />
              <mxPoint x="590" y="215" />
            </Array>
          </mxGeometry>
        </mxCell>
        <mxCell id="YBr_9CjgEZrfSN83zHOZ-20" style="edgeStyle=orthogonalEdgeStyle;rounded=0;orthogonalLoop=1;jettySize=auto;html=1;entryX=-0.044;entryY=0.515;entryDx=0;entryDy=0;dashed=1;endArrow=none;endFill=0;entryPerimeter=0;exitX=0.972;exitY=0.911;exitDx=0;exitDy=0;exitPerimeter=0;" edge="1" parent="1" source="YBr_9CjgEZrfSN83zHOZ-7" target="YBr_9CjgEZrfSN83zHOZ-18">
          <mxGeometry relative="1" as="geometry">
            <mxPoint x="541" y="354" as="sourcePoint" />
            <mxPoint x="641" y="225" as="targetPoint" />
            <Array as="points">
              <mxPoint x="541" y="382" />
              <mxPoint x="541" y="380" />
              <mxPoint x="590" y="380" />
              <mxPoint x="590" y="509" />
            </Array>
          </mxGeometry>
        </mxCell>
        <mxCell id="YBr_9CjgEZrfSN83zHOZ-21" value="" style="endArrow=none;html=1;rounded=0;strokeWidth=4;strokeColor=#CC0000;" edge="1" parent="1">
          <mxGeometry width="50" height="50" relative="1" as="geometry">
            <mxPoint x="340" y="215" as="sourcePoint" />
            <mxPoint x="390" y="165" as="targetPoint" />
          </mxGeometry>
        </mxCell>
        <mxCell id="YBr_9CjgEZrfSN83zHOZ-22" value="" style="endArrow=none;html=1;rounded=0;strokeWidth=4;strokeColor=#CC0000;" edge="1" parent="1">
          <mxGeometry width="50" height="50" relative="1" as="geometry">
            <mxPoint x="390" y="215" as="sourcePoint" />
            <mxPoint x="340" y="165" as="targetPoint" />
          </mxGeometry>
        </mxCell>
        <mxCell id="YBr_9CjgEZrfSN83zHOZ-25" value="" style="endArrow=none;html=1;rounded=0;strokeWidth=4;strokeColor=#CC0000;" edge="1" parent="1">
          <mxGeometry width="50" height="50" relative="1" as="geometry">
            <mxPoint x="639" y="290" as="sourcePoint" />
            <mxPoint x="689" y="240" as="targetPoint" />
          </mxGeometry>
        </mxCell>
        <mxCell id="YBr_9CjgEZrfSN83zHOZ-26" value="" style="endArrow=none;html=1;rounded=0;strokeWidth=4;strokeColor=#CC0000;" edge="1" parent="1">
          <mxGeometry width="50" height="50" relative="1" as="geometry">
            <mxPoint x="689" y="290" as="sourcePoint" />
            <mxPoint x="639" y="240" as="targetPoint" />
          </mxGeometry>
        </mxCell>
      </root>
    </mxGraphModel>
  </diagram>
</mxfile>
